PathFileType	4	(X/Y/Z)	Patient4_TMGait_0pt5_01_right_02.trc.trc
DataRate	CameraRate	NumFrames	NumMarkers	Units	OrigDataRate	OrigDataStartFrame	OrigNumFrames
76.086956521739	76.086956521739	4	33	mm	76.086956521739	53	       141
Frame#	Time	L.ASIS			Sacral			L.Shoulder			Chest			R.Shoulder			Neck			R.ASIS			R.Thigh.Superior			R.Thigh.Lateral			R.Thigh.Inferior			R.Patella			L.Thigh.Superior			L.Thigh.Lateral			L.Thigh.Inferior			L.Patella			L.Shank.Superior			L.Shank.Lateral			L.Shank.Inferior			R.Shank.Superior			R.Shank.Lateral			R.Shank.Inferior			R.Heel			R.Midfoot.Superior			R.Midfoot.Lateral			R.Toe			L.Heel			L.Midfoot.Lateral			L.Midfoot.Superior			L.Toe			L.Elbow			L.Wrist			R.Elbow			R.Wrist			
		X1	Y1	Z1	X2	Y2	Z2	X3	Y3	Z3	X4	Y4	Z4	X5	Y5	Z5	X6	Y6	Z6	X7	Y7	Z7	X8	Y8	Z8	X9	Y9	Z9	X10	Y10	Z10	X11	Y11	Z11	X12	Y12	Z12	X13	Y13	Z13	X14	Y14	Z14	X15	Y15	Z15	X16	Y16	Z16	X17	Y17	Z17	X18	Y18	Z18	X19	Y19	Z19	X20	Y20	Z20	X21	Y21	Z21	X22	Y22	Z22	X23	Y23	Z23	X24	Y24	Z24	X25	Y25	Z25	X26	Y26	Z26	X27	Y27	Z27	X28	Y28	Z28	X29	Y29	Z29	X30	Y30	Z30	X31	Y31	Z31	X32	Y32	Z32	X33	Y33	Z33	

53	2.593428571429	752.533661844665	970.886213104727	355.974404995578	551.437075267663	1008.814964131120	529.507011222462	704.231109026551	1439.610696372841	341.996197830896	821.267943916376	1369.765392542919	494.212998871997	751.180404155700	1442.020559027990	675.811793490424	716.423804860084	1499.957368675310	493.246798361132	789.042007792985	941.501231139961	627.062497178739	820.537713290279	738.046971662729	589.485405919163	738.970492340697	632.913625209237	653.326153415435	805.710410807315	578.072688815663	566.474658424341	801.007936241742	489.340124869669	570.489294327887	838.489861468778	787.107510915527	382.356546230852	790.336855082410	658.975852581165	311.656979551242	892.534061376938	596.716857377302	371.460261752561	909.465400895743	512.475355690057	366.162621683218	860.044300997104	439.497838522629	358.080017673428	737.472872543267	359.950847763065	308.065387770536	763.401455926977	232.570782661078	363.218488070122	771.199109382883	401.713425680460	579.703116318077	699.453224717715	299.459665072722	642.057215970646	736.107887569499	204.687486368915	577.413313450627	595.486540859815	42.231080374543	548.367540888902	766.774903620737	97.228188237712	583.719127919855	678.667121424843	36.198619459281	623.564655399203	886.508278020413	46.155217429399	612.947434573086	601.613289269275	111.817012940355	400.836229234537	669.218286928932	89.190420190586	319.142936588878	765.644183764116	129.971779553232	340.070567270265	874.257067635833	50.939100396192	309.239310063614	631.362290665401	1090.763548929052	226.877527072239	694.732470521952	837.679229891662	207.238290312711	756.834730623311	1107.446064066521	819.539387793452	945.834556364274	930.298579663843	801.493277543200	
54	2.606571428571	750.496310295315	971.489502129132	356.277253827640	550.603858177223	1009.722710471863	531.144312139922	703.948832368177	1439.484366998695	342.222059483982	821.877658167319	1369.449596459178	493.692842686135	753.568887715993	1442.580442064227	675.653784252325	717.252001915178	1500.079363414947	493.271936128806	788.357693269707	941.030085099067	627.041614859897	817.752791089420	737.284816703375	588.792416616992	735.877519318313	632.909815586899	653.643163261637	801.159597942519	577.453117417801	566.224392267683	795.698539888352	488.878161254800	570.479094671725	836.670001804165	788.017892215526	382.716213061284	788.203704385364	659.779037220001	312.147487212976	889.744685582226	597.521321074427	372.831722787083	908.180316995209	515.485789082253	367.711602125947	863.125130732230	441.800432489704	358.722756685418	746.967473998873	354.341294269991	307.398246274000	781.380723393159	228.701445337715	362.439770520248	765.702264031340	401.388806979598	579.703285536525	693.749417470082	299.346145715935	642.181419742185	729.894938613678	204.505667277978	577.365112812672	588.850809604290	42.181768934094	548.376684187173	760.117624193735	97.188511179779	583.690558146386	672.022765546785	36.190317322466	623.562697329618	879.853968609632	46.133001620189	612.952866620293	628.471395731742	96.626236377605	398.708813557418	698.048977728538	79.190478254251	317.387131593750	791.154209118670	126.551474845813	339.068751759918	905.221856157043	55.633676264842	308.770145000506	627.154238087060	1091.144819134324	228.728349764729	680.335545228114	836.080894103720	208.172296321077	763.545223867146	1108.485655108881	819.731475925399	959.456492800534	940.044108209708	797.326410235218	
55	2.619714285714	748.547758327262	971.880501343235	356.477306376979	549.832110727834	1010.541690170981	532.711705197370	703.763193225624	1439.257662876594	342.322866986199	822.515815805668	1369.011751016898	493.071701660909	755.905435353388	1442.985294442285	675.358106088014	718.116519739671	1500.082210582986	493.173691733160	787.711990565025	940.511821063239	626.963023242060	815.068255665184	736.483897433882	588.197593713882	732.856625270174	632.845817257327	653.984471344134	796.739063203949	576.794564055382	566.053504692881	790.530080585744	488.380857602377	570.547647550726	834.446416477339	788.339607428244	383.009614146858	785.513547913419	660.198133696761	312.387851955898	886.185690109836	597.713311391088	374.186179533324	906.102701899179	518.102368235603	369.186869767220	865.511158309743	444.036809184574	359.314765137345	756.463166289158	348.907837932869	306.628119945987	799.280644043256	225.654291348374	361.823813669447	760.312449617935	401.023543460644	579.749028677046	688.129217266179	299.206280802702	642.333171326056	723.720043776741	204.284296305715	577.343488054014	582.221996594015	42.145056069973	548.395431213485	753.457825016360	97.131567890936	583.663956519208	665.383730797292	36.180472340911	623.572725362066	873.207262260790	46.070956590385	612.966978961755	656.019270316619	82.788027154587	396.738556742491	727.430294544364	70.516414010962	315.965081091391	816.762910896099	124.291325282027	338.430592718582	935.843871096772	61.723582231927	309.056797159265	623.470492984605	1091.428869146062	230.321718792870	666.905094152005	834.857265061465	209.094825853864	770.039470440344	1109.310814291191	819.498572277806	972.458596332920	950.055768892780	792.482671276136	
56	2.632857142857	746.700028227846	972.057070070586	356.580479897254	549.147833001256	1011.255437315991	534.204790105370	703.682280280538	1438.939120580878	342.296284536062	823.174494878647	1368.461380846115	492.359933928358	758.155011374307	1443.230869252022	674.932457332995	719.018193588200	1499.970071170032	492.949509781319	787.117499488267	939.961490105159	626.839422392387	812.523994279626	735.647470173643	587.723708597776	729.924866107025	632.710847139731	654.329711616098	792.493958022939	576.093539570371	565.955618047136	785.546971480411	487.841391297456	570.670702792222	831.845581892557	788.116278984396	383.268871696851	782.432670953568	660.297977645280	312.348288302352	882.076914699393	597.409745678259	375.462467707226	903.438694441112	520.366878764833	370.528838720404	867.302086420013	446.244951793663	359.826478559367	765.875923984908	343.887615453271	305.791061030852	816.798638453437	223.615557176989	361.403667252889	755.065310335725	400.615150778578	579.822355701702	682.619574740454	299.046995069555	642.502036980327	717.600312713131	204.025708710062	577.339842349815	575.598485981937	42.127051371816	548.423160773518	746.799473359624	97.057074000837	583.637430302097	658.751349964799	36.170889822334	623.593701644323	866.571566855410	45.965489414051	612.990798561120	683.679806381953	70.788176838104	395.023886312025	756.773526651151	63.471524849676	314.977144458245	841.994360913928	123.328431401604	338.207665515951	965.531531999089	69.103436215562	310.172269240774	620.236258802404	1091.628373439661	231.636444639502	654.558200966534	833.975784621642	209.994735696864	776.365344110840	1109.883552795097	818.816545170234	984.797943773310	960.202333508557	787.009279447565	
